<?xml version="1.0" standalone="no"?>
<!DOCTYPE svg PUBLIC "-//W3C//DTD SVG 20010904//EN"
 "http://www.w3.org/TR/2001/REC-SVG-20010904/DTD/svg10.dtd">
<svg version="1.0" xmlns="http://www.w3.org/2000/svg"
 width="2308.000000pt" height="2308.000000pt" viewBox="0 0 2308.000000 2308.000000"
 preserveAspectRatio="xMidYMid meet">
<metadata>
Created by potrace 1.14, written by Peter Selinger 2001-2017
</metadata>
<g transform="translate(0.000000,2308.000000) scale(0.100000,-0.100000)"
fill="#000000" stroke="none">
<path d="M8875 15206 c-220 -67 -406 -124 -413 -126 -9 -4 14 -35 64 -89 l77
-83 -1899 -1897 c-2048 -2046 -1941 -1944 -2099 -1994 -101 -32 -292 -31 -385
2 -191 68 -320 189 -388 361 -35 88 -45 156 -40 264 9 169 63 293 182 411 78
77 175 133 281 160 78 20 223 21 308 1 167 -39 321 -153 393 -291 16 -30 32
-54 36 -52 4 1 72 64 152 140 l146 138 -39 57 c-50 74 -177 195 -267 255 -345
228 -803 229 -1146 1 -205 -136 -357 -351 -425 -599 -25 -90 -27 -116 -27
-260 0 -175 14 -249 73 -392 113 -274 355 -496 635 -582 315 -97 628 -50 911
138 52 34 551 526 1975 1947 l1905 1902 80 -74 c44 -41 82 -74 85 -74 4 0 62
188 130 418 68 229 125 423 128 430 2 7 -4 12 -14 11 -11 -1 -199 -56 -419
-123z"/>
<path d="M4260 14244 c-400 -33 -712 -119 -1040 -286 -404 -206 -736 -502
-992 -883 -220 -329 -356 -682 -425 -1107 -26 -161 -23 -539 5 -724 90 -577
333 -1068 724 -1464 212 -215 447 -386 714 -521 l151 -77 -301 -7 c-430 -10
-1009 -1 -1114 18 -504 92 -875 368 -1091 810 -163 336 -186 779 -56 1097 59
143 118 243 213 361 123 153 310 309 494 411 l77 43 6 55 c10 100 37 294 42
307 7 18 -63 -10 -196 -77 -455 -228 -787 -588 -941 -1020 -53 -147 -76 -256
-90 -420 -23 -277 27 -564 146 -838 263 -610 808 -995 1499 -1063 191 -19
4291 5 4435 26 368 53 675 204 944 465 143 138 225 242 311 390 112 192 180
368 227 585 31 147 33 445 4 599 l-18 98 -138 -137 -138 -137 -5 -152 c-10
-284 -88 -516 -261 -776 -82 -123 -249 -295 -372 -382 -96 -69 -272 -158 -369
-188 -200 -61 -221 -63 -754 -68 l-494 -4 154 79 c85 43 197 108 249 142 236
158 274 193 1042 965 l747 751 79 -79 80 -79 25 84 c14 46 72 239 130 429 57
190 103 346 102 348 -3 3 -857 -249 -864 -255 -3 -2 31 -40 75 -84 l79 -79
-745 -744 c-798 -795 -840 -834 -1071 -966 -250 -143 -483 -225 -789 -277
-165 -28 -523 -25 -693 5 -255 46 -434 105 -652 215 -376 189 -720 516 -926
884 -208 369 -300 746 -286 1177 6 185 37 418 57 424 5 2 10 20 10 40 0 48 78
275 139 407 153 326 404 636 682 843 402 298 841 443 1339 443 639 0 1211
-251 1651 -726 40 -44 77 -80 80 -80 4 0 71 62 148 138 l142 138 -50 57 c-387
443 -962 749 -1581 842 -129 20 -441 33 -550 24z"/>
<path d="M18904 13846 c-3 -8 -4 -131 -2 -273 3 -280 5 -291 60 -319 25 -13
58 -15 178 -12 147 3 149 3 192 33 23 17 53 49 65 70 22 39 23 47 20 275 l-2
235 -253 3 c-212 2 -253 0 -258 -12z"/>
<path d="M12078 13760 c-122 -25 -179 -46 -282 -98 -219 -112 -376 -272 -446
-455 -49 -126 -69 -255 -83 -552 l-2 -50 -190 -5 -190 -5 0 -260 0 -260 192
-3 193 -2 2 -1144 c3 -1140 3 -1145 24 -1173 37 -50 77 -63 199 -63 94 0 117
4 161 24 62 29 118 93 133 151 8 31 11 369 11 1124 l0 1079 253 4 c238 3 255
4 303 26 93 42 156 129 174 238 13 80 12 142 -5 187 -25 72 -21 71 -390 77
l-330 5 1 120 c1 132 18 215 61 304 63 131 222 221 389 221 l44 0 0 265 0 265
-67 -1 c-38 0 -107 -9 -155 -19z"/>
<path d="M13010 11790 c0 -2164 -4 -2015 55 -2070 24 -23 36 -25 127 -28 57
-2 118 1 142 8 63 17 127 70 161 131 l30 54 3 1948 2 1947 -260 0 -260 0 0
-1990z"/>
<path d="M8648 13566 c-20 -6 -40 -15 -45 -20 -5 -5 0 -6 10 -3 10 4 24 7 31
7 7 0 21 7 32 15 22 17 21 17 -28 1z"/>
<path d="M8215 13436 c-203 -62 -376 -114 -383 -117 -8 -3 3 -19 30 -44 42
-39 42 -39 9 -3 l-33 36 63 20 c35 11 204 61 374 112 171 51 312 94 314 96 18
16 -49 -2 -374 -100z"/>
<path d="M4180 13429 c-101 -16 -122 -20 -118 -25 3 -2 52 3 109 11 225 32
521 12 734 -50 175 -51 396 -151 529 -240 116 -78 282 -224 380 -335 42 -48
44 -49 15 -10 -18 25 -74 85 -123 134 -286 279 -629 449 -1031 512 -99 15
-405 17 -495 3z"/>
<path d="M3960 13386 c-431 -114 -772 -352 -1051 -733 -17 -24 -29 -43 -26
-43 2 0 37 44 78 98 242 324 627 578 1012 668 42 10 77 21 77 26 0 4 -1 8 -2
7 -2 0 -41 -11 -88 -23z"/>
<path d="M7963 13184 c9 -11 17 -25 17 -30 0 -16 -2611 -2618 -2677 -2667
-236 -178 -472 -270 -766 -297 -237 -22 -527 30 -732 132 -163 81 -268 158
-409 296 -91 89 -99 95 -46 35 295 -335 755 -518 1195 -475 282 28 505 112
730 275 74 54 2715 2683 2715 2703 0 6 -10 19 -22 30 -23 19 -23 19 -5 -2z"/>
<path d="M17385 13173 c-11 -3 -47 -16 -80 -30 -164 -68 -159 -57 -165 -328
l-5 -210 -175 -5 -175 -5 -3 -262 -2 -263 177 -2 178 -3 6 -830 c5 -812 6
-832 27 -908 12 -43 40 -117 63 -163 133 -272 467 -444 862 -444 106 0 123 3
167 25 79 40 90 71 90 254 l0 149 -30 30 c-37 37 -68 47 -195 62 -178 21 -332
68 -389 118 -10 9 -29 38 -42 64 l-24 47 0 801 0 800 238 0 237 0 61 29 c75
36 136 103 160 180 24 76 25 214 1 258 -33 61 -43 63 -387 63 l-310 0 0 183
c0 118 -5 200 -13 233 -17 65 -61 122 -112 145 -38 18 -114 23 -160 12z"/>
<path d="M4398 13043 c18 -2 45 -2 60 0 15 2 0 4 -33 4 -33 0 -45 -2 -27 -4z"/>
<path d="M4238 13033 c6 -2 18 -2 25 0 6 3 1 5 -13 5 -14 0 -19 -2 -12 -5z"/>
<path d="M4578 13033 c7 -3 16 -2 19 1 4 3 -2 6 -13 5 -11 0 -14 -3 -6 -6z"/>
<path d="M4168 13023 c6 -2 18 -2 25 0 6 3 1 5 -13 5 -14 0 -19 -2 -12 -5z"/>
<path d="M4648 13023 c7 -3 16 -2 19 1 4 3 -2 6 -13 5 -11 0 -14 -3 -6 -6z"/>
<path d="M4118 13013 c7 -3 16 -2 19 1 4 3 -2 6 -13 5 -11 0 -14 -3 -6 -6z"/>
<path d="M4078 13003 c7 -3 16 -2 19 1 4 3 -2 6 -13 5 -11 0 -14 -3 -6 -6z"/>
<path d="M4038 12993 c7 -3 16 -2 19 1 4 3 -2 6 -13 5 -11 0 -14 -3 -6 -6z"/>
<path d="M4788 12993 c7 -3 16 -2 19 1 4 3 -2 6 -13 5 -11 0 -14 -3 -6 -6z"/>
<path d="M3780 12900 c-8 -5 -10 -10 -5 -10 6 0 17 5 25 10 8 5 11 10 5 10 -5
0 -17 -5 -25 -10z"/>
<path d="M5070 12886 c0 -2 7 -7 16 -10 8 -3 12 -2 9 4 -6 10 -25 14 -25 6z"/>
<path d="M8345 12790 c44 -44 82 -80 85 -80 2 0 -31 36 -75 80 -44 44 -82 80
-85 80 -2 0 31 -36 75 -80z"/>
<path d="M3589 12783 c-13 -16 -12 -17 4 -4 9 7 17 15 17 17 0 8 -8 3 -21 -13z"/>
<path d="M5240 12786 c0 -2 8 -10 18 -17 15 -13 16 -12 3 4 -13 16 -21 21 -21
13z"/>
<path d="M3549 12753 c-13 -16 -12 -17 4 -4 16 13 21 21 13 21 -2 0 -10 -8
-17 -17z"/>
<path d="M3494 12708 l-29 -33 33 29 c30 28 37 36 29 36 -2 0 -16 -15 -33 -32z"/>
<path d="M5345 12700 c21 -22 41 -40 44 -40 3 0 -13 18 -34 40 -21 22 -41 40
-44 40 -3 0 13 -18 34 -40z"/>
<path d="M5715 12588 l-140 -143 143 140 c132 130 147 145 139 145 -1 0 -65
-64 -142 -142z"/>
<path d="M14540 12346 l0 -265 488 -3 487 -3 55 -27 c127 -62 198 -165 208
-298 l5 -70 -324 0 c-358 -1 -489 -12 -657 -55 -322 -84 -576 -275 -704 -530
-37 -72 -74 -198 -88 -294 -18 -120 -8 -353 19 -456 78 -295 297 -519 598
-612 87 -27 92 -27 363 -28 273 0 276 0 380 29 115 32 230 78 328 132 34 19
67 34 72 34 6 0 10 -27 10 -60 0 -70 17 -111 55 -128 15 -7 74 -12 144 -12
144 0 197 16 256 75 79 79 75 20 75 1084 0 1070 0 1070 -76 1238 -41 92 -80
148 -163 235 -109 116 -225 188 -391 244 l-85 29 -527 3 -528 3 0 -265z m1240
-1363 c0 -227 -18 -312 -88 -423 -94 -148 -306 -287 -489 -321 -33 -6 -137 -9
-243 -7 -169 3 -189 6 -232 27 -122 60 -191 163 -203 303 -9 108 8 228 41 294
67 133 246 241 454 273 110 18 116 18 443 20 l317 1 0 -167z"/>
<path d="M2855 12570 c-9 -16 -13 -30 -11 -30 3 0 12 14 21 30 9 17 13 30 11
30 -3 0 -12 -13 -21 -30z"/>
<path d="M18904 12587 c-2 -7 -3 -638 -2 -1402 3 -1370 3 -1390 23 -1424 32
-54 75 -71 181 -71 56 0 108 6 136 16 63 21 126 78 154 138 l24 51 0 1353 0
1352 -255 0 c-198 0 -257 -3 -261 -13z"/>
<path d="M21056 12589 c-314 -43 -615 -201 -810 -425 -190 -217 -294 -429
-330 -676 -22 -145 -22 -541 0 -686 26 -179 83 -330 183 -487 226 -353 590
-577 1000 -616 309 -29 602 46 861 221 25 16 48 30 53 30 14 0 8 -334 -8 -426
-49 -282 -257 -514 -545 -611 -78 -26 -97 -28 -235 -28 -118 0 -164 4 -215 19
-96 28 -165 61 -234 110 -148 105 -181 102 -309 -23 -102 -99 -127 -159 -107
-255 6 -30 21 -70 33 -88 63 -94 364 -235 582 -273 236 -41 451 -26 666 45
197 65 353 157 492 290 155 146 284 358 356 580 62 189 61 177 61 1178 0 598
-4 938 -11 985 -15 106 -74 288 -129 402 -176 365 -529 637 -935 720 -97 20
-324 27 -419 14z m353 -544 c36 -9 113 -39 170 -67 89 -44 117 -64 196 -142
193 -190 245 -338 245 -691 0 -278 -25 -391 -123 -547 -86 -138 -222 -253
-367 -312 -113 -46 -177 -58 -305 -59 -127 0 -199 14 -307 57 -208 84 -379
267 -461 492 l-32 89 0 280 0 280 32 89 c106 292 354 498 658 546 75 11 208 4
294 -15z"/>
<path d="M3325 12538 l-40 -43 43 40 c23 21 42 40 42 42 0 8 -9 0 -45 -39z"/>
<path d="M5510 12536 c0 -2 8 -10 18 -17 15 -13 16 -12 3 4 -13 16 -21 21 -21
13z"/>
<path d="M2820 12510 c-6 -11 -8 -20 -6 -20 3 0 10 9 16 20 6 11 8 20 6 20 -3
0 -10 -9 -16 -20z"/>
<path d="M5540 12496 c0 -2 8 -10 18 -17 15 -13 16 -12 3 4 -13 16 -21 21 -21
13z"/>
<path d="M3269 12473 c-13 -16 -12 -17 4 -4 16 13 21 21 13 21 -2 0 -10 -8
-17 -17z"/>
<path d="M3239 12433 c-13 -16 -12 -17 4 -4 9 7 17 15 17 17 0 8 -8 3 -21 -13z"/>
<path d="M2752 12375 c-17 -37 -14 -45 4 -12 9 16 14 31 11 33 -2 2 -9 -7 -15
-21z"/>
<path d="M2611 11924 c0 -11 3 -14 6 -6 3 7 2 16 -1 19 -3 4 -6 -2 -5 -13z"/>
<path d="M2601 11854 c0 -11 3 -14 6 -6 3 7 2 16 -1 19 -3 4 -6 -2 -5 -13z"/>
<path d="M3001 11854 c0 -11 3 -14 6 -6 3 7 2 16 -1 19 -3 4 -6 -2 -5 -13z"/>
<path d="M2593 11775 c0 -22 2 -30 4 -17 2 12 2 30 0 40 -3 9 -5 -1 -4 -23z"/>
<path d="M6445 11058 l-750 -753 753 750 c413 412 752 751 752 752 0 2 -1 3
-3 3 -1 0 -340 -339 -752 -752z"/>
<path d="M2991 11784 c0 -11 3 -14 6 -6 3 7 2 16 -1 19 -3 4 -6 -2 -5 -13z"/>
<path d="M2983 11610 c0 -36 2 -50 4 -32 2 17 2 47 0 65 -2 17 -4 3 -4 -33z"/>
<path d="M2592 11460 c0 -19 2 -27 5 -17 2 9 2 25 0 35 -3 9 -5 1 -5 -18z"/>
<path d="M2991 11434 c0 -11 3 -14 6 -6 3 7 2 16 -1 19 -3 4 -6 -2 -5 -13z"/>
<path d="M2601 11374 c0 -11 3 -14 6 -6 3 7 2 16 -1 19 -3 4 -6 -2 -5 -13z"/>
<path d="M3001 11374 c0 -11 3 -14 6 -6 3 7 2 16 -1 19 -3 4 -6 -2 -5 -13z"/>
<path d="M2612 11300 c0 -14 2 -19 5 -12 2 6 2 18 0 25 -3 6 -5 1 -5 -13z"/>
<path d="M3130 10976 c0 -11 30 -66 36 -66 2 0 -3 15 -12 33 -19 36 -24 44
-24 33z"/>
<path d="M2730 10905 c0 -5 5 -17 10 -25 5 -8 10 -10 10 -5 0 6 -5 17 -10 25
-5 8 -10 11 -10 5z"/>
<path d="M3180 10880 c6 -11 13 -20 16 -20 2 0 0 9 -6 20 -6 11 -13 20 -16 20
-2 0 0 -9 6 -20z"/>
<path d="M3210 10831 c5 -11 15 -23 21 -27 6 -3 3 5 -6 20 -20 30 -30 35 -15
7z"/>
<path d="M3260 10760 c12 -16 24 -30 26 -30 3 0 -4 14 -16 30 -12 17 -24 30
-26 30 -3 0 4 -13 16 -30z"/>
<path d="M2790 10771 c0 -6 4 -13 10 -16 6 -3 7 1 4 9 -7 18 -14 21 -14 7z"/>
<path d="M2830 10700 c6 -11 13 -20 16 -20 2 0 0 9 -6 20 -6 11 -13 20 -16 20
-2 0 0 -9 6 -20z"/>
<path d="M2920 10556 c0 -2 8 -10 18 -17 15 -13 16 -12 3 4 -13 16 -21 21 -21
13z"/>
<path d="M2950 10516 c0 -2 8 -10 18 -17 15 -13 16 -12 3 4 -13 16 -21 21 -21
13z"/>
<path d="M3000 10455 c13 -14 26 -25 28 -25 3 0 -5 11 -18 25 -13 14 -26 25
-28 25 -3 0 5 -11 18 -25z"/>
<path d="M3040 10407 c0 -2 15 -16 33 -33 l32 -29 -29 33 c-28 30 -36 37 -36
29z"/>
<path d="M3165 10280 c10 -11 20 -20 23 -20 3 0 -3 9 -13 20 -10 11 -20 20
-23 20 -3 0 3 -9 13 -20z"/>
<path d="M5619 10243 l-34 -38 38 34 c34 33 42 41 34 41 -2 0 -19 -17 -38 -37z"/>
<path d="M3245 10210 c10 -11 20 -20 23 -20 3 0 -3 9 -13 20 -10 11 -20 20
-23 20 -3 0 3 -9 13 -20z"/>
<path d="M5549 10183 c-13 -16 -12 -17 4 -4 9 7 17 15 17 17 0 8 -8 3 -21 -13z"/>
<path d="M3280 10186 c0 -2 8 -10 18 -17 15 -13 16 -12 3 4 -13 16 -21 21 -21
13z"/>
<path d="M3320 10156 c0 -2 8 -10 18 -17 15 -13 16 -12 3 4 -13 16 -21 21 -21
13z"/>
<path d="M5479 10133 c-13 -16 -12 -17 4 -4 9 7 17 15 17 17 0 8 -8 3 -21 -13z"/>
<path d="M5439 10103 c-13 -16 -12 -17 4 -4 16 13 21 21 13 21 -2 0 -10 -8
-17 -17z"/>
<path d="M3394 10101 c7 -11 46 -35 46 -28 0 3 -12 12 -26 22 -15 9 -23 12
-20 6z"/>
<path d="M5374 10064 c-18 -14 -18 -15 4 -4 12 6 22 13 22 15 0 8 -5 6 -26
-11z"/>
<path d="M3450 10066 c0 -3 9 -10 20 -16 11 -6 20 -8 20 -6 0 3 -9 10 -20 16
-11 6 -20 8 -20 6z"/>
<path d="M5324 10034 c-18 -14 -18 -15 4 -4 12 6 22 13 22 15 0 8 -5 6 -26
-11z"/>
<path d="M3500 10036 c0 -3 9 -10 20 -16 11 -6 20 -8 20 -6 0 3 -9 10 -20 16
-11 6 -20 8 -20 6z"/>
<path d="M5260 10000 c-19 -11 -31 -19 -27 -20 11 0 67 29 67 35 0 7 -1 7 -40
-15z"/>
<path d="M3650 9955 c14 -8 30 -14 35 -14 6 0 -1 6 -15 14 -14 8 -29 14 -35
14 -5 0 1 -6 15 -14z"/>
<path d="M5120 9935 c-14 -8 -20 -14 -15 -14 6 0 21 6 35 14 14 8 21 14 15 14
-5 0 -21 -6 -35 -14z"/>
<path d="M3928 9853 c7 -3 16 -2 19 1 4 3 -2 6 -13 5 -11 0 -14 -3 -6 -6z"/>
<path d="M3968 9843 c7 -3 16 -2 19 1 4 3 -2 6 -13 5 -11 0 -14 -3 -6 -6z"/>
<path d="M4848 9843 c7 -3 16 -2 19 1 4 3 -2 6 -13 5 -11 0 -14 -3 -6 -6z"/>
<path d="M4058 9823 c7 -3 16 -2 19 1 4 3 -2 6 -13 5 -11 0 -14 -3 -6 -6z"/>
<path d="M4758 9823 c7 -3 16 -2 19 1 4 3 -2 6 -13 5 -11 0 -14 -3 -6 -6z"/>
<path d="M4118 9813 c6 -2 18 -2 25 0 6 3 1 5 -13 5 -14 0 -19 -2 -12 -5z"/>
<path d="M4688 9813 c6 -2 18 -2 25 0 6 3 1 5 -13 5 -14 0 -19 -2 -12 -5z"/>
<path d="M4188 9803 c6 -2 18 -2 25 0 6 3 1 5 -13 5 -14 0 -19 -2 -12 -5z"/>
<path d="M4618 9803 c6 -2 18 -2 25 0 6 3 1 5 -13 5 -14 0 -19 -2 -12 -5z"/>
<path d="M4293 9793 c15 -2 37 -2 50 0 12 2 0 4 -28 4 -27 0 -38 -2 -22 -4z"/>
<path d="M4493 9793 c15 -2 39 -2 55 0 15 2 2 4 -28 4 -30 0 -43 -2 -27 -4z"/>
</g>
</svg>
